<svg xmlns="http://www.w3.org/2000/svg" width="15.75" height="18" viewBox="0 0 15.75 18">
  <path id="data" d="M15.75,2.571V4.179c0,1.416-3.527,2.571-7.875,2.571S0,5.595,0,4.179V2.571C0,1.155,3.527,0,7.875,0S15.75,1.155,15.75,2.571Zm0,3.616V9.8c0,1.416-3.527,2.571-7.875,2.571S0,11.22,0,9.8V6.188C1.692,7.353,4.789,7.9,7.875,7.9S14.058,7.353,15.75,6.188Zm0,5.625v3.616C15.75,16.845,12.223,18,7.875,18S0,16.845,0,15.429V11.813c1.692,1.165,4.789,1.708,7.875,1.708S14.058,12.978,15.75,11.813Z" fill="#767677"/>
</svg>
